<svg width="378" height="337" viewBox="0 0 378 337" fill="none" xmlns="http://www.w3.org/2000/svg">
<path opacity="0.1" d="M154.105 335.875C157.377 336.529 159.994 335.221 160.648 332.604L252.904 15.2695C253.559 12.6523 252.25 9.38086 249.633 8.72656L224.115 1.5293C221.498 0.875 218.227 2.18359 217.572 4.80078L125.316 322.135C124.662 324.752 125.971 328.023 129.242 328.678L154.105 335.875ZM99.7988 256.705L117.465 237.73C119.428 235.768 119.428 232.496 117.465 230.533L48.1094 168.375L117.465 106.871C119.428 104.908 119.428 101.637 117.465 99.6738L99.7988 80.6992C97.8359 78.7363 94.5645 78.082 92.6016 80.0449L2.30859 165.104C0.345703 167.066 0.345703 170.338 2.30859 172.301L92.6016 256.705C94.5645 258.668 97.8359 258.668 99.7988 256.705ZM285.619 256.705L375.912 172.301C377.875 170.338 377.875 167.066 375.912 165.104L285.619 80.0449C283.656 78.082 280.385 78.7363 278.422 80.6992L260.756 99.6738C258.793 101.637 258.793 104.908 260.756 106.871L330.111 168.375L260.756 230.533C258.793 232.496 258.793 235.768 260.756 237.73L278.422 256.705C280.385 258.668 283.656 258.668 285.619 256.705Z" fill="white"/>
</svg>
