<svg width="1448" height="710" viewBox="0 0 1448 710" fill="none" xmlns="http://www.w3.org/2000/svg">
<path d="M0 0H1440V337.058C991.682 669.208 648.817 705.764 0 710V0Z" fill="#9381FF"/>
<g clip-path="url(#clip0_903_7)">
<path d="M1283.11 494.056C1283.11 495.744 1281.74 497.113 1280.05 497.113C1278.37 497.113 1277 495.744 1277 494.056C1277 492.368 1278.37 491 1280.05 491C1281.74 491 1283.11 492.368 1283.11 494.056Z" fill="#FFD8BE"/>
<path d="M1306.66 494.056C1306.66 495.744 1305.3 497.113 1303.61 497.113C1301.92 497.113 1300.56 495.744 1300.56 494.056C1300.56 492.368 1301.92 491 1303.61 491C1305.3 491 1306.66 492.368 1306.66 494.056Z" fill="#FFD8BE"/>
<path d="M1330.22 494.056C1330.22 495.744 1328.85 497.113 1327.17 497.113C1325.48 497.113 1324.11 495.744 1324.11 494.056C1324.11 492.368 1325.48 491 1327.17 491C1328.85 491 1330.22 492.368 1330.22 494.056Z" fill="#FFD8BE"/>
<path d="M1353.78 494.056C1353.78 495.744 1352.41 497.113 1350.72 497.113C1349.04 497.113 1347.67 495.744 1347.67 494.056C1347.67 492.368 1349.04 491 1350.72 491C1352.41 491 1353.78 492.368 1353.78 494.056Z" fill="#FFD8BE"/>
<path d="M1377.33 494.056C1377.33 495.744 1375.96 497.113 1374.28 497.113C1372.59 497.113 1371.22 495.744 1371.22 494.056C1371.22 492.368 1372.59 491 1374.28 491C1375.96 491 1377.33 492.368 1377.33 494.056Z" fill="#FFD8BE"/>
<path d="M1400.89 494.056C1400.89 495.744 1399.52 497.113 1397.83 497.113C1396.15 497.113 1394.78 495.744 1394.78 494.056C1394.78 492.368 1396.15 491 1397.83 491C1399.52 491 1400.89 492.368 1400.89 494.056Z" fill="#FFD8BE"/>
<path d="M1424.44 494.056C1424.44 495.744 1423.08 497.113 1421.39 497.113C1419.7 497.113 1418.34 495.744 1418.34 494.056C1418.34 492.368 1419.7 491 1421.39 491C1423.08 491 1424.44 492.368 1424.44 494.056Z" fill="#FFD8BE"/>
<path d="M1448 494.056C1448 495.744 1446.63 497.113 1444.95 497.113C1443.26 497.113 1441.89 495.744 1441.89 494.056C1441.89 492.368 1443.26 491 1444.95 491C1446.63 491 1448 492.368 1448 494.056Z" fill="#FFD8BE"/>
<path d="M1283.11 517.634C1283.11 519.322 1281.74 520.69 1280.05 520.69C1278.37 520.69 1277 519.322 1277 517.634C1277 515.946 1278.37 514.577 1280.05 514.577C1281.74 514.577 1283.11 515.946 1283.11 517.634Z" fill="#FFD8BE"/>
<path d="M1306.66 517.634C1306.66 519.322 1305.3 520.69 1303.61 520.69C1301.92 520.69 1300.56 519.322 1300.56 517.634C1300.56 515.946 1301.92 514.577 1303.61 514.577C1305.3 514.577 1306.66 515.946 1306.66 517.634Z" fill="#FFD8BE"/>
<path d="M1330.22 517.634C1330.22 519.322 1328.85 520.69 1327.17 520.69C1325.48 520.69 1324.11 519.322 1324.11 517.634C1324.11 515.946 1325.48 514.577 1327.17 514.577C1328.85 514.577 1330.22 515.946 1330.22 517.634Z" fill="#FFD8BE"/>
<path d="M1353.78 517.634C1353.78 519.322 1352.41 520.69 1350.72 520.69C1349.04 520.69 1347.67 519.322 1347.67 517.634C1347.67 515.946 1349.04 514.577 1350.72 514.577C1352.41 514.577 1353.78 515.946 1353.78 517.634Z" fill="#FFD8BE"/>
<path d="M1377.33 517.634C1377.33 519.322 1375.96 520.69 1374.28 520.69C1372.59 520.69 1371.22 519.322 1371.22 517.634C1371.22 515.946 1372.59 514.577 1374.28 514.577C1375.96 514.577 1377.33 515.946 1377.33 517.634Z" fill="#FFD8BE"/>
<path d="M1400.89 517.634C1400.89 519.322 1399.52 520.69 1397.83 520.69C1396.15 520.69 1394.78 519.322 1394.78 517.634C1394.78 515.946 1396.15 514.577 1397.83 514.577C1399.52 514.577 1400.89 515.946 1400.89 517.634Z" fill="#FFD8BE"/>
<path d="M1424.44 517.634C1424.44 519.322 1423.08 520.69 1421.39 520.69C1419.7 520.69 1418.34 519.322 1418.34 517.634C1418.34 515.946 1419.7 514.577 1421.39 514.577C1423.08 514.577 1424.44 515.946 1424.44 517.634Z" fill="#FFD8BE"/>
<path d="M1448 517.634C1448 519.322 1446.63 520.69 1444.95 520.69C1443.26 520.69 1441.89 519.322 1441.89 517.634C1441.89 515.946 1443.26 514.577 1444.95 514.577C1446.63 514.577 1448 515.946 1448 517.634Z" fill="#FFD8BE"/>
<path d="M1283.11 541.211C1283.11 542.899 1281.74 544.268 1280.05 544.268C1278.37 544.268 1277 542.899 1277 541.211C1277 539.523 1278.37 538.155 1280.05 538.155C1281.74 538.155 1283.11 539.523 1283.11 541.211Z" fill="#FFD8BE"/>
<path d="M1306.66 541.211C1306.66 542.899 1305.3 544.268 1303.61 544.268C1301.92 544.268 1300.56 542.899 1300.56 541.211C1300.56 539.523 1301.92 538.155 1303.61 538.155C1305.3 538.155 1306.66 539.523 1306.66 541.211Z" fill="#FFD8BE"/>
<path d="M1330.22 541.211C1330.22 542.899 1328.85 544.268 1327.17 544.268C1325.48 544.268 1324.11 542.899 1324.11 541.211C1324.11 539.523 1325.48 538.155 1327.17 538.155C1328.85 538.155 1330.22 539.523 1330.22 541.211Z" fill="#FFD8BE"/>
<path d="M1353.78 541.211C1353.78 542.899 1352.41 544.268 1350.72 544.268C1349.04 544.268 1347.67 542.899 1347.67 541.211C1347.67 539.523 1349.04 538.155 1350.72 538.155C1352.41 538.155 1353.78 539.523 1353.78 541.211Z" fill="#FFD8BE"/>
<path d="M1377.33 541.211C1377.33 542.899 1375.96 544.268 1374.28 544.268C1372.59 544.268 1371.22 542.899 1371.22 541.211C1371.22 539.523 1372.59 538.155 1374.28 538.155C1375.96 538.155 1377.33 539.523 1377.33 541.211Z" fill="#FFD8BE"/>
<path d="M1400.89 541.211C1400.89 542.899 1399.52 544.268 1397.83 544.268C1396.15 544.268 1394.78 542.899 1394.78 541.211C1394.78 539.523 1396.15 538.155 1397.83 538.155C1399.52 538.155 1400.89 539.523 1400.89 541.211Z" fill="#FFD8BE"/>
<path d="M1424.44 541.211C1424.44 542.899 1423.08 544.268 1421.39 544.268C1419.7 544.268 1418.34 542.899 1418.34 541.211C1418.34 539.523 1419.7 538.155 1421.39 538.155C1423.08 538.155 1424.44 539.523 1424.44 541.211Z" fill="#FFD8BE"/>
<path d="M1448 541.211C1448 542.899 1446.63 544.268 1444.95 544.268C1443.26 544.268 1441.89 542.899 1441.89 541.211C1441.89 539.523 1443.26 538.155 1444.95 538.155C1446.63 538.155 1448 539.523 1448 541.211Z" fill="#FFD8BE"/>
<path d="M1283.11 564.789C1283.11 566.477 1281.74 567.845 1280.05 567.845C1278.37 567.845 1277 566.477 1277 564.789C1277 563.101 1278.37 561.732 1280.05 561.732C1281.74 561.732 1283.11 563.101 1283.11 564.789Z" fill="#FFD8BE"/>
<path d="M1306.66 564.789C1306.66 566.477 1305.3 567.845 1303.61 567.845C1301.92 567.845 1300.56 566.477 1300.56 564.789C1300.56 563.101 1301.92 561.732 1303.61 561.732C1305.3 561.732 1306.66 563.101 1306.66 564.789Z" fill="#FFD8BE"/>
<path d="M1330.22 564.789C1330.22 566.477 1328.85 567.845 1327.17 567.845C1325.48 567.845 1324.11 566.477 1324.11 564.789C1324.11 563.101 1325.48 561.732 1327.17 561.732C1328.85 561.732 1330.22 563.101 1330.22 564.789Z" fill="#FFD8BE"/>
<path d="M1353.78 564.789C1353.78 566.477 1352.41 567.845 1350.72 567.845C1349.04 567.845 1347.67 566.477 1347.67 564.789C1347.67 563.101 1349.04 561.732 1350.72 561.732C1352.41 561.732 1353.78 563.101 1353.78 564.789Z" fill="#FFD8BE"/>
<path d="M1377.33 564.789C1377.33 566.477 1375.96 567.845 1374.28 567.845C1372.59 567.845 1371.22 566.477 1371.22 564.789C1371.22 563.101 1372.59 561.732 1374.28 561.732C1375.96 561.732 1377.33 563.101 1377.33 564.789Z" fill="#FFD8BE"/>
<path d="M1400.89 564.789C1400.89 566.477 1399.52 567.845 1397.83 567.845C1396.15 567.845 1394.78 566.477 1394.78 564.789C1394.78 563.101 1396.15 561.732 1397.83 561.732C1399.52 561.732 1400.89 563.101 1400.89 564.789Z" fill="#FFD8BE"/>
<path d="M1424.44 564.789C1424.44 566.477 1423.08 567.845 1421.39 567.845C1419.7 567.845 1418.34 566.477 1418.34 564.789C1418.34 563.101 1419.7 561.732 1421.39 561.732C1423.08 561.732 1424.44 563.101 1424.44 564.789Z" fill="#FFD8BE"/>
<path d="M1448 564.789C1448 566.477 1446.63 567.845 1444.95 567.845C1443.26 567.845 1441.89 566.477 1441.89 564.789C1441.89 563.101 1443.26 561.732 1444.95 561.732C1446.63 561.732 1448 563.101 1448 564.789Z" fill="#FFD8BE"/>
<path d="M1283.11 588.366C1283.11 590.054 1281.74 591.423 1280.05 591.423C1278.37 591.423 1277 590.054 1277 588.366C1277 586.678 1278.37 585.31 1280.05 585.31C1281.74 585.31 1283.11 586.678 1283.11 588.366Z" fill="#FFD8BE"/>
<path d="M1306.66 588.366C1306.66 590.054 1305.3 591.423 1303.61 591.423C1301.92 591.423 1300.56 590.054 1300.56 588.366C1300.56 586.678 1301.92 585.31 1303.61 585.31C1305.3 585.31 1306.66 586.678 1306.66 588.366Z" fill="#FFD8BE"/>
<path d="M1330.22 588.366C1330.22 590.054 1328.85 591.423 1327.17 591.423C1325.48 591.423 1324.11 590.054 1324.11 588.366C1324.11 586.678 1325.48 585.31 1327.17 585.31C1328.85 585.31 1330.22 586.678 1330.22 588.366Z" fill="#FFD8BE"/>
<path d="M1353.78 588.366C1353.78 590.054 1352.41 591.423 1350.72 591.423C1349.04 591.423 1347.67 590.054 1347.67 588.366C1347.67 586.678 1349.04 585.31 1350.72 585.31C1352.41 585.31 1353.78 586.678 1353.78 588.366Z" fill="#FFD8BE"/>
<path d="M1377.33 588.366C1377.33 590.054 1375.96 591.423 1374.28 591.423C1372.59 591.423 1371.22 590.054 1371.22 588.366C1371.22 586.678 1372.59 585.31 1374.28 585.31C1375.96 585.31 1377.33 586.678 1377.33 588.366Z" fill="#FFD8BE"/>
<path d="M1400.89 588.366C1400.89 590.054 1399.52 591.423 1397.83 591.423C1396.15 591.423 1394.78 590.054 1394.78 588.366C1394.78 586.678 1396.15 585.31 1397.83 585.31C1399.52 585.31 1400.89 586.678 1400.89 588.366Z" fill="#FFD8BE"/>
<path d="M1424.44 588.366C1424.44 590.054 1423.08 591.423 1421.39 591.423C1419.7 591.423 1418.34 590.054 1418.34 588.366C1418.34 586.678 1419.7 585.31 1421.39 585.31C1423.08 585.31 1424.44 586.678 1424.44 588.366Z" fill="#FFD8BE"/>
<path d="M1448 588.366C1448 590.054 1446.63 591.423 1444.95 591.423C1443.26 591.423 1441.89 590.054 1441.89 588.366C1441.89 586.678 1443.26 585.31 1444.95 585.31C1446.63 585.31 1448 586.678 1448 588.366Z" fill="#FFD8BE"/>
<path d="M1283.11 611.944C1283.11 613.632 1281.74 615 1280.05 615C1278.37 615 1277 613.632 1277 611.944C1277 610.256 1278.37 608.887 1280.05 608.887C1281.74 608.887 1283.11 610.256 1283.11 611.944Z" fill="#FFD8BE"/>
<path d="M1306.66 611.944C1306.66 613.632 1305.3 615 1303.61 615C1301.92 615 1300.56 613.632 1300.56 611.944C1300.56 610.256 1301.92 608.887 1303.61 608.887C1305.3 608.887 1306.66 610.256 1306.66 611.944Z" fill="#FFD8BE"/>
<path d="M1330.22 611.944C1330.22 613.632 1328.85 615 1327.17 615C1325.48 615 1324.11 613.632 1324.11 611.944C1324.11 610.256 1325.48 608.887 1327.17 608.887C1328.85 608.887 1330.22 610.256 1330.22 611.944Z" fill="#FFD8BE"/>
<path d="M1353.78 611.944C1353.78 613.632 1352.41 615 1350.72 615C1349.04 615 1347.67 613.632 1347.67 611.944C1347.67 610.256 1349.04 608.887 1350.72 608.887C1352.41 608.887 1353.78 610.256 1353.78 611.944Z" fill="#FFD8BE"/>
<path d="M1377.33 611.944C1377.33 613.632 1375.96 615 1374.28 615C1372.59 615 1371.22 613.632 1371.22 611.944C1371.22 610.256 1372.59 608.887 1374.28 608.887C1375.96 608.887 1377.33 610.256 1377.33 611.944Z" fill="#FFD8BE"/>
<path d="M1400.89 611.944C1400.89 613.632 1399.52 615 1397.83 615C1396.15 615 1394.78 613.632 1394.78 611.944C1394.78 610.256 1396.15 608.887 1397.83 608.887C1399.52 608.887 1400.89 610.256 1400.89 611.944Z" fill="#FFD8BE"/>
<path d="M1424.44 611.944C1424.44 613.632 1423.08 615 1421.39 615C1419.7 615 1418.34 613.632 1418.34 611.944C1418.34 610.256 1419.7 608.887 1421.39 608.887C1423.08 608.887 1424.44 610.256 1424.44 611.944Z" fill="#FFD8BE"/>
<path d="M1448 611.944C1448 613.632 1446.63 615 1444.95 615C1443.26 615 1441.89 613.632 1441.89 611.944C1441.89 610.256 1443.26 608.887 1444.95 608.887C1446.63 608.887 1448 610.256 1448 611.944Z" fill="#FFD8BE"/>
</g>
<path opacity="0.1" d="M1045.11 466.875C1048.38 467.529 1050.99 466.221 1051.65 463.604L1143.9 146.27C1144.56 143.652 1143.25 140.381 1140.63 139.727L1115.12 132.529C1112.5 131.875 1109.23 133.184 1108.57 135.801L1016.32 453.135C1015.66 455.752 1016.97 459.023 1020.24 459.678L1045.11 466.875ZM990.799 387.705L1008.46 368.73C1010.43 366.768 1010.43 363.496 1008.46 361.533L939.109 299.375L1008.46 237.871C1010.43 235.908 1010.43 232.637 1008.46 230.674L990.799 211.699C988.836 209.736 985.564 209.082 983.602 211.045L893.309 296.104C891.346 298.066 891.346 301.338 893.309 303.301L983.602 387.705C985.564 389.668 988.836 389.668 990.799 387.705ZM1176.62 387.705L1266.91 303.301C1268.88 301.338 1268.88 298.066 1266.91 296.104L1176.62 211.045C1174.66 209.082 1171.38 209.736 1169.42 211.699L1151.76 230.674C1149.79 232.637 1149.79 235.908 1151.76 237.871L1221.11 299.375L1151.76 361.533C1149.79 363.496 1149.79 366.768 1151.76 368.73L1169.42 387.705C1171.38 389.668 1174.66 389.668 1176.62 387.705Z" fill="white"/>
<defs>
<clipPath id="clip0_903_7">
<rect width="171" height="124" fill="white" transform="translate(1277 491)"/>
</clipPath>
</defs>
</svg>
